<svg xmlns="http://www.w3.org/2000/svg" viewBox="0 0 128 128"><defs><style>.cls-1{isolation:isolate;}.cls-2{fill:#0c91ae;}.cls-3{fill:#fff;}.cls-4,.cls-5{opacity:0.2;}.cls-4{mix-blend-mode:multiply;}.cls-5,.cls-8{fill:#f36e51;}.cls-6,.cls-7{fill:none;stroke:#f36e51;stroke-miterlimit:10;stroke-width:3px;}.cls-7{stroke-dasharray:3 6;}</style></defs><title>Artboard 2</title><g class="cls-1"><g id="Layer_1" data-name="Layer 1"><rect class="cls-2" width="128" height="128"/><path class="cls-3" d="M49,16H79v4.29H49Z"/><path class="cls-3" d="M49,24.57H79v4.29H49Z"/><path class="cls-3" d="M49,33.14H79v4.29H49Z"/><g class="cls-4"><polygon points="79 64.01 69 52 59 64.01 16 64.01 16 122 122 122 122 64.01 79 64.01"/></g><polygon class="cls-3" points="74 59.01 64 47 54 59.01 11 59.01 11 117 117 117 117 59.01 74 59.01"/><rect class="cls-5" x="20.51" y="68.5" width="39" height="39"/><rect class="cls-5" x="68.49" y="68.5" width="39" height="39"/><polyline class="cls-6" points="105.99 104.5 105.99 106 104.49 106"/><line class="cls-7" x1="98.49" y1="106" x2="74.49" y2="106"/><polyline class="cls-6" points="71.49 106 69.99 106 69.99 104.5"/><line class="cls-7" x1="69.99" y1="98.5" x2="69.99" y2="74.5"/><polyline class="cls-6" points="69.99 71.5 69.99 70 71.49 70"/><line class="cls-7" x1="77.49" y1="70" x2="101.49" y2="70"/><polyline class="cls-6" points="104.49 70 105.99 70 105.99 71.5"/><line class="cls-7" x1="105.99" y1="77.5" x2="105.99" y2="101.5"/><path class="cls-8" d="M93.06,82.93a7.17,7.17,0,1,0,0,10.14A7.17,7.17,0,0,0,93.06,82.93Z"/><path class="cls-3" d="M88.94,92.12H87V89H83.87v-1.9H87V83.89h1.9v3.17h3.17V89H88.94Z"/><polyline class="cls-6" points="58.01 104.5 58.01 106 56.51 106"/><line class="cls-7" x1="50.51" y1="106" x2="26.51" y2="106"/><polyline class="cls-6" points="23.51 106 22.01 106 22.01 104.5"/><line class="cls-7" x1="22.01" y1="98.5" x2="22.01" y2="74.5"/><polyline class="cls-6" points="22.01 71.5 22.01 70 23.51 70"/><line class="cls-7" x1="29.51" y1="70" x2="53.51" y2="70"/><polyline class="cls-6" points="56.51 70 58.01 70 58.01 71.5"/><line class="cls-7" x1="58.01" y1="77.5" x2="58.01" y2="101.5"/><path class="cls-8" d="M45.08,82.93a7.17,7.17,0,1,0,0,10.14A7.17,7.17,0,0,0,45.08,82.93Z"/><path class="cls-3" d="M41,92.12h-1.9V89H35.89v-1.9h3.17V83.89H41v3.17h3.17V89H41Z"/></g></g></svg>